<?xml version="1.0" standalone="no"?>
<!DOCTYPE svg PUBLIC "-//W3C//DTD SVG 20010904//EN"
 "http://www.w3.org/TR/2001/REC-SVG-20010904/DTD/svg10.dtd">
<svg version="1.0" xmlns="http://www.w3.org/2000/svg"
 width="260.000000pt" height="260.000000pt" viewBox="0 0 260.000000 260.000000"
 preserveAspectRatio="xMidYMid meet">
<metadata>
Created by potrace 1.14, written by Peter Selinger 2001-2017
</metadata>
<g transform="translate(0.000000,260.000000) scale(0.100000,-0.100000)"
fill="#000000" stroke="none">
<path d="M0 1300 l0 -1300 1300 0 1300 0 0 1300 0 1300 -1300 0 -1300 0 0
-1300z m1590 987 c128 -37 130 -38 206 -77 161 -83 329 -250 422 -418 14 -26
29 -49 32 -52 21 -18 93 -221 110 -313 39 -209 -43 -544 -172 -709 -45 -57
-174 -186 -223 -223 -22 -16 -42 -33 -45 -37 -3 -3 -19 -9 -35 -13 l-30 -7 33
22 c17 12 32 26 32 31 0 5 5 9 11 9 26 0 193 198 236 280 16 30 34 64 40 75
21 38 43 93 43 107 0 8 4 18 9 23 19 21 37 148 41 300 2 74 -10 190 -19 193
-5 2 -7 12 -4 23 3 10 0 25 -6 33 -6 7 -9 20 -6 28 3 8 -1 21 -10 28 -8 7 -15
26 -15 42 0 21 -6 31 -18 35 -13 3 -18 11 -15 27 3 13 -3 29 -16 40 -12 11
-21 25 -21 32 0 8 -9 19 -20 26 -11 7 -20 20 -20 29 0 9 -11 24 -25 33 -14 9
-23 21 -20 26 8 13 -38 58 -55 53 -13 -4 -13 -3 -1 5 20 14 0 37 -45 52 -19 7
-31 16 -28 22 4 6 10 5 15 -3 6 -10 9 -10 9 -2 0 11 -18 27 -30 28 -22 1 -68
29 -64 39 7 19 -36 44 -69 40 -15 -1 -25 1 -22 7 3 5 -1 6 -9 3 -9 -3 -17 2
-20 14 -7 22 -27 33 -70 38 -16 2 -35 9 -41 14 -7 6 -19 8 -28 4 -8 -3 -18 -1
-22 5 -3 7 0 8 9 5 9 -3 16 -1 16 5 0 6 -3 11 -7 12 -18 2 -60 9 -83 15 -14 4
-40 6 -59 5 -20 -2 -37 3 -42 11 -7 11 -9 11 -9 -1 0 -11 -3 -11 -15 -1 -8 7
-15 9 -15 4 0 -5 -37 -8 -82 -6 -140 5 -117 6 -284 -13 -58 -7 -77 -15 -65
-29 6 -8 2 -11 -16 -13 -19 -1 -22 1 -12 8 9 5 10 9 2 9 -6 0 -19 -7 -27 -16
-9 -8 -28 -17 -43 -20 -40 -8 -46 -14 -28 -34 15 -17 14 -18 -17 -16 -47 3
-101 -23 -95 -46 5 -17 -4 -23 -27 -19 -5 1 -19 -7 -31 -19 -12 -11 -25 -17
-30 -13 -4 5 -2 -3 5 -16 6 -13 8 -21 3 -18 -12 8 -93 -30 -93 -43 0 -6 5 -8
10 -5 16 10 12 0 -10 -25 -11 -13 -20 -29 -20 -36 0 -7 -12 -19 -27 -26 -19
-9 -28 -21 -28 -38 0 -14 -6 -25 -13 -25 -18 0 -31 -24 -25 -45 3 -12 -2 -20
-17 -25 -15 -5 -19 -12 -14 -27 4 -13 -1 -26 -15 -39 -12 -11 -21 -27 -21 -35
0 -8 -7 -29 -16 -46 -10 -19 -11 -27 -3 -23 6 5 3 -7 -7 -25 -14 -24 -16 -34
-7 -37 10 -4 10 -8 -1 -18 -8 -9 -13 -35 -12 -75 1 -34 -1 -63 -5 -65 -18 -12
21 -293 52 -376 12 -30 23 -63 26 -74 3 -11 11 -26 17 -34 5 -7 11 -19 12 -26
3 -19 52 -101 69 -115 8 -7 15 -18 15 -25 0 -21 194 -206 250 -237 86 -48 169
-88 183 -88 7 0 17 -4 22 -8 26 -23 179 -57 315 -70 74 -7 75 -8 30 -15 -49
-7 -135 -2 -220 13 -30 6 -65 12 -77 14 -46 8 -149 50 -179 72 -17 13 -37 24
-44 24 -7 0 -28 11 -46 25 -18 14 -35 25 -39 25 -3 0 -16 11 -29 25 -13 14
-27 25 -31 25 -7 0 -78 72 -162 163 -22 25 -44 55 -48 66 -3 12 -10 21 -14 21
-17 0 -110 201 -137 295 -25 88 -29 116 -29 235 0 128 17 236 46 290 32 60 93
197 92 207 0 7 3 11 7 8 4 -3 16 15 26 38 30 68 142 219 194 260 27 21 56 46
67 56 30 28 125 88 178 112 28 13 52 26 55 30 3 5 14 7 25 5 11 -2 30 3 41 11
40 26 109 32 309 28 176 -3 210 -7 285 -28z m-58 -145 c7 -7 22 -12 34 -12 12
0 35 -6 51 -14 15 -7 55 -26 88 -41 90 -43 154 -86 220 -153 88 -87 115 -119
108 -126 -4 -3 -2 -6 4 -6 6 0 20 -19 32 -42 12 -24 21 -38 21 -33 1 21 63
-133 77 -190 40 -166 47 -237 34 -319 -33 -196 -70 -297 -152 -418 -51 -75
-159 -189 -197 -209 -15 -8 -33 -22 -40 -31 -7 -10 -19 -15 -29 -11 -10 4 -14
2 -10 -4 5 -8 -63 -45 -158 -84 -85 -36 -276 -56 -393 -42 -119 15 -202 33
-202 44 0 5 -9 9 -20 9 -11 0 -20 5 -20 10 0 6 -7 10 -16 10 -36 0 -154 74
-231 145 -81 74 -162 177 -195 245 -55 117 -68 150 -74 190 -4 25 -11 53 -16
63 -13 25 -12 307 1 320 6 6 11 20 11 31 0 29 33 136 42 136 4 0 8 6 8 13 0
19 77 165 108 207 72 94 188 188 295 238 100 47 119 54 188 72 61 16 104 19
247 16 117 -1 176 -6 184 -14z m305 -1729 c-13 -12 -87 -42 -87 -34 0 4 15 14
33 23 33 16 65 23 54 11z m-100 -49 c-3 -3 -12 -4 -19 -1 -8 3 -5 6 6 6 11 1
17 -2 13 -5z m-47 -14 c0 -5 -3 -10 -7 -10 -5 0 -19 -3 -33 -6 l-25 -6 25 15
c31 18 40 20 40 7z m-93 -36 c-3 -3 -12 -4 -19 -1 -8 3 -5 6 6 6 11 1 17 -2
13 -5z"/>
<path d="M800 2140 c0 -5 5 -10 10 -10 6 0 10 5 10 10 0 6 -4 10 -10 10 -5 0
-10 -4 -10 -10z"/>
<path d="M1160 2131 c-8 -5 -35 -12 -60 -16 -25 -4 -76 -21 -115 -37 -101 -44
-260 -157 -243 -173 2 -3 67 -8 144 -11 76 -4 145 -11 152 -17 9 -7 13 -32 11
-81 -2 -59 0 -72 14 -74 23 -5 21 -19 -3 -27 -30 -10 -24 -25 10 -25 36 0 44
16 55 109 l7 64 163 -6 c128 -4 168 -2 189 8 30 16 172 13 359 -6 145 -16 143
-12 127 -200 -6 -78 -17 -150 -23 -160 -16 -25 -46 -28 -127 -10 -25 6 -117
10 -205 9 -112 0 -148 -3 -120 -9 22 -4 109 -8 193 -8 83 -1 152 -5 152 -10 0
-17 -42 -19 -357 -15 -374 5 -387 4 -390 -34 -3 -40 -5 -108 -4 -189 1 -70 2
-73 32 -88 23 -12 45 -15 92 -9 34 3 98 8 142 10 44 1 105 4 135 5 30 2 -29 5
-131 8 -128 4 -191 10 -201 19 -22 18 -36 231 -16 243 7 5 58 7 113 4 55 -3
230 -8 388 -11 243 -5 290 -9 304 -22 14 -14 15 -53 11 -328 -3 -251 -7 -316
-18 -330 -13 -15 -34 -16 -211 -12 -156 4 -204 9 -230 22 -28 14 -93 18 -394
27 -198 6 -366 12 -373 15 -11 3 -13 40 -10 176 4 204 -1 298 -15 298 -7 0 -8
109 -4 322 l6 322 -32 -34 c-62 -67 -105 -125 -123 -167 -10 -24 -22 -43 -26
-43 -4 0 -10 -16 -14 -35 -3 -19 -10 -35 -14 -35 -7 0 -19 -57 -42 -195 -5
-33 -7 -94 -4 -135 6 -79 33 -218 46 -235 4 -5 11 -26 15 -45 4 -19 10 -37 14
-40 17 -13 41 -72 35 -83 -4 -6 -4 -9 1 -5 4 4 26 -18 47 -50 44 -63 180 -198
209 -207 11 -4 19 -11 19 -16 0 -5 5 -9 11 -9 7 0 33 -13 58 -28 55 -33 154
-72 185 -72 12 0 27 -5 34 -12 16 -16 263 -23 327 -10 106 23 150 34 160 43 5
5 16 9 25 9 14 0 151 76 188 104 41 31 172 163 172 173 0 6 4 13 8 15 26 10
117 179 128 238 4 16 10 30 14 30 4 0 8 10 9 23 0 12 5 51 11 87 58 373 -136
745 -470 902 -107 51 -112 52 -187 72 -68 17 -326 22 -353 7z"/>
<path d="M1167 1804 c-4 -4 -7 -46 -7 -94 0 -96 2 -100 85 -153 39 -25 48 -26
285 -37 299 -14 363 -12 368 13 2 10 -3 17 -12 17 -8 0 -19 7 -24 16 -5 8 -18
21 -29 27 -12 7 -64 44 -115 84 -52 39 -110 78 -129 86 -47 21 -407 55 -422
41z"/>
<path d="M1040 1610 c0 -5 7 -7 15 -4 8 4 15 8 15 10 0 2 -7 4 -15 4 -8 0 -15
-4 -15 -10z"/>
<path d="M1016 1353 c-3 -82 -9 -217 -13 -302 l-6 -154 299 6 c279 7 375 14
392 32 11 11 8 195 -3 195 -5 0 -9 -17 -8 -38 1 -22 -5 -44 -15 -56 -16 -18
-16 -19 1 -13 10 4 16 3 12 -2 -3 -5 -6 -28 -7 -51 -1 -22 -4 -37 -7 -33 -3 5
-140 8 -304 8 -164 0 -303 3 -310 7 -8 5 -12 81 -13 273 0 146 -3 267 -6 270
-3 3 -8 -61 -12 -142z"/>
<path d="M871 1392 l-84 -85 -8 -111 c-5 -61 -11 -178 -15 -260 l-7 -148 389
4 c214 3 397 8 407 12 9 5 17 14 17 22 0 8 10 14 23 15 21 0 21 1 2 9 -11 5
-148 9 -305 9 -157 1 -294 4 -305 7 -20 5 -20 12 -16 300 1 163 -1 299 -5 303
-5 4 -47 -31 -93 -77z"/>
<path d="M1172 1289 c2 -47 8 -90 12 -97 5 -9 76 -12 275 -12 203 0 271 -3
279 -12 6 -7 14 -47 18 -88 l7 -74 32 37 c18 20 37 37 44 37 6 0 11 4 11 9 0
6 11 21 23 35 13 14 24 31 24 38 1 7 4 52 8 99 l8 86 -129 6 c-71 4 -239 10
-373 13 l-244 7 5 -84z"/>
<path d="M1563 1133 c9 -2 25 -2 35 0 9 3 1 5 -18 5 -19 0 -27 -2 -17 -5z"/>
</g>
</svg>
